<!-- Uploaded to: SVG Repo, www.svgrepo.com, Transformed by: SVG Repo Mixer Tools -->
<svg height="90px" width="90px" version="1.1" id="Capa_1" xmlns="http://www.w3.org/2000/svg" xmlns:xlink="http://www.w3.org/1999/xlink" viewBox="-24.8 -24.8 105.96 105.96" xml:space="preserve" fill="#000000" stroke="#000000" stroke-width="0.00056364">

<g id="SVGRepo_bgCarrier" stroke-width="0"/>

<g id="SVGRepo_tracerCarrier" stroke-linecap="round" stroke-linejoin="round" stroke="#CCCCCC" stroke-width="0.11272800000000001"/>

<g id="SVGRepo_iconCarrier"> <g> <g> <g> <path style="fill:#ffb3b3;" d="M22.965,11.651C23.261,6.602,25.22,0,28.206,0c3.002,0,5.023,6.776,5.367,11.91 c0.207,3.118,1.099,6.291,3.483,8.309l13.035,11.03c2.386,2.018,4.526,5.939,4.782,7.524c0.256,1.584-1.714,2.571-4.397,0.972 L37.3,31.894c-2.684-1.601-5.08-1.373-5.352,1.74l0.273,8.327c0.228,3.547,0.937,7.252,2.699,9.245 c1.764,1.991,2.233,4.096,2.283,4.698c0.05,0.604-1.909,0.615-4.375,0.026c-2.464-0.589-6.535-0.589-9.092,0 c-2.558,0.589-4.586,0.577-4.533-0.026c0.054-0.603,0.662-2.707,2.595-4.698c1.933-1.993,2.564-5.284,2.83-9.226l0.006-8.364 c-0.368-3.104-2.903-3.426-5.66-1.956L5.988,38.585c-2.757,1.47-4.769,0.689-4.493-0.51c0.276-1.199,1.43-3.812,3.81-5.838 l13.237-11.264C20.922,18.949,22.781,14.771,22.965,11.651z"/> </g> </g> </g> </g>

</svg>